<svg id="Capa_1" enable-background="new 0 0 512 512" height="512" viewBox="0 0 512 512" width="512" xmlns="http://www.w3.org/2000/svg"><g><path d="m297.76 386.283-49.759-23.296-33.761 23.296-13.499 30.651 53.427 24.161 57.091-24.161z" fill="#335995"/><path d="m232.02 56.368h47.961v94.551h-47.961z" fill="#335995"/><path d="m232.02 56.368h22.525v94.551h-22.525z" fill="#26457d"/><path d="m320.274 79.663h-128.548c-12.866 0-23.295-10.43-23.295-23.295 0-12.866 10.43-23.295 23.295-23.295h128.549c12.866 0 23.295 10.43 23.295 23.295 0 12.865-10.43 23.295-23.296 23.295z" fill="#ffe07d"/><path d="m248.63 79.67h-56.907c-12.867 0-23.292-10.436-23.292-23.303 0-6.429 2.606-12.249 6.82-16.462 4.213-4.224 10.034-6.83 16.473-6.83h56.907c-6.428 0-12.249 2.606-16.473 6.83-4.214 4.213-6.82 10.034-6.82 16.462 0 12.868 10.435 23.303 23.292 23.303z" fill="#ffd064"/><path d="m469.443 324.293-210.476 29.103-216.41-29.103c0-6.16.258-12.249.773-18.275 9.271-109.334 100.947-195.168 212.67-195.168s203.399 85.835 212.671 195.168c.515 6.026.772 12.114.772 18.275z" fill="#ffe07d"/><path d="m90.947 345.817-48.389-21.526c0-117.884 95.559-213.443 213.443-213.443 22.705 0 44.576 3.544 65.097 10.116-86.051 27.506-148.356 108.138-148.356 203.327z" fill="#ffd064"/><path d="m481.005 478.925h-450.01c-17.118 0-30.995-13.877-30.995-30.996 0-17.118 13.877-30.995 30.995-30.995h450.009c17.118 0 30.995 13.877 30.995 30.995.001 17.119-13.876 30.996-30.994 30.996z" fill="#ffe07d"/><path d="m172.133 478.927h-141.135c-17.121 0-30.998-13.876-30.998-30.998 0-8.561 3.472-16.308 9.076-21.923 5.614-5.604 13.361-9.076 21.922-9.076h141.135c-8.561 0-16.308 3.472-21.912 9.076-5.604 5.615-9.076 13.362-9.076 21.923 0 17.122 13.877 30.998 30.988 30.998z" fill="#ffd064"/><path d="m469.443 324.293-210.476 29.103-216.41-29.103c0-6.16.258-12.249.773-18.275h425.341c.515 6.026.772 12.114.772 18.275z" fill="#ffd064"/><path d="m481.005 386.283h-450.01c-17.118 0-30.995-13.878-30.995-30.996 0-17.118 13.877-30.995 30.995-30.995h450.009c17.118 0 30.995 13.877 30.995 30.995.001 17.118-13.876 30.996-30.994 30.996z" fill="#ffe07d"/><path d="m172.133 386.285h-141.135c-17.121 0-30.998-13.877-30.998-30.998 0-8.561 3.472-16.308 9.076-21.923 5.614-5.604 13.361-9.076 21.922-9.076h141.135c-8.561 0-16.308 3.472-21.912 9.076-5.604 5.615-9.076 13.362-9.076 21.923 0 17.121 13.877 30.998 30.988 30.998z" fill="#ffd064"/><path d="m446.906 162.611h-13.703v-13.703c0-10.595-8.589-19.184-19.184-19.184-10.595 0-19.184 8.589-19.184 19.184v13.703h-13.703c-10.595 0-19.184 8.589-19.184 19.184s8.589 19.184 19.184 19.184h13.703v13.703c0 10.595 8.589 19.184 19.184 19.184 10.595 0 19.184-8.589 19.184-19.184v-13.702h13.703c10.595 0 19.184-8.589 19.184-19.184 0-10.596-8.589-19.185-19.184-19.185z" fill="#f9f6f6"/></g></svg>